<svg width="183" height="183" viewBox="0 0 183 183" fill="none" xmlns="http://www.w3.org/2000/svg">
<g filter="url(#filter0_d)">
<path d="M161.929 139.337C203.892 82.4091 163.87 0.600692 92.195 0.0334527C92.1921 0.0334527 92.1898 0.0328721 92.1868 0.0328721C92.1793 0.0328721 92.1712 0.0328721 92.1642 0.0322915C92.1532 0.0322915 92.1416 0.0317109 92.1311 0.0317109C92.123 0.0317109 92.1143 0.0317109 92.1061 0.0317109C91.6672 0.0206797 91.2225 0.0206797 90.8312 0.0317109C90.8271 0.0317109 90.8236 0.0317109 90.8195 0.0317109C90.8143 0.0317109 90.8091 0.0322915 90.8044 0.0322915C90.8004 0.0322915 90.7957 0.0322915 90.7917 0.0322915C90.7899 0.0322915 90.7888 0.0322915 90.787 0.0322915C42.2181 0.400387 4 39.9353 4 87.5004C4 135.806 43.1616 174.975 91.4745 174.975C107.014 174.975 122.545 170.869 136.385 162.569L147.489 173.674C149.22 175.403 152.033 175.411 153.77 173.673L171.874 155.563C173.609 153.828 173.608 151.016 171.874 149.282L161.929 139.337ZM64.7277 13.664C57.4947 21.8336 51.5175 33.3827 47.4847 47.5265H23.8156C33.1696 31.76 47.7854 19.8479 64.7277 13.664ZM19.2806 56.4096H45.2836C43.4786 64.9333 42.4405 73.8587 42.1885 83.0588H13.005C13.513 73.8065 15.62 64.8723 19.2806 56.4096ZM13.005 91.9419H42.1891C42.4405 101.143 43.4792 110.068 45.2842 118.591H19.2806C15.62 110.13 13.513 101.195 13.005 91.9419ZM23.8156 127.474H47.4841C51.5169 141.617 57.4929 153.165 64.7219 161.334C47.7831 155.15 33.1702 143.239 23.8156 127.474ZM87.0329 165.59C74.6431 162.814 63.2983 148.563 56.7544 127.474H87.0329V165.59ZM87.0329 118.591H54.385C52.4574 110.117 51.3421 101.187 51.0739 91.9419H87.0329C87.0329 105.376 87.0329 112.456 87.0329 118.591ZM87.0329 83.0588H51.0739C51.3415 73.814 52.4569 64.8845 54.3844 56.4096H87.0335V83.0588H87.0329ZM87.0329 47.526H56.755C63.2948 26.4493 74.632 12.2015 87.0335 9.41351V47.526H87.0329ZM163.668 118.591H159.268L163.097 114.762C165.513 112.345 164.402 108.214 161.106 107.331L140.176 101.723C140.47 98.5038 140.668 95.2373 140.759 91.9425H169.944C169.436 101.194 167.329 110.127 163.668 118.591ZM169.944 83.0588H140.76C140.509 73.8582 139.47 64.9327 137.665 56.4096H163.668C167.329 64.8712 169.436 73.8059 169.944 83.0588ZM159.133 47.5265H135.465C131.432 33.3839 125.456 21.8353 118.227 13.6664C135.167 19.8497 149.781 31.7617 159.133 47.5265ZM95.916 9.41003C108.306 12.1864 119.651 26.4371 126.194 47.526H95.916V9.41003ZM95.916 56.4096H128.564C130.492 64.8834 131.608 73.8135 131.876 83.0588H95.9166V56.4096H95.916ZM131.867 91.9419C131.794 94.4448 131.665 96.9327 131.469 99.3886L103.682 91.9419H131.867ZM95.916 165.587V127.474H96.042L105.109 161.311C102.133 163.44 99.0442 164.879 95.916 165.587ZM118.049 161.476C119.971 159.328 121.807 156.94 123.545 154.32L125.841 152.024L129.893 156.076C126.091 158.211 122.129 160.012 118.049 161.476ZM150.629 164.251L128.981 142.603C127.248 140.869 124.435 140.867 122.7 142.602C116.373 148.929 118.032 147.27 112.127 153.176L97.7565 99.5506C120.103 105.54 145.262 112.282 151.377 113.92L140.803 124.492C139.069 126.228 139.069 129.039 140.803 130.774L162.453 152.423L150.629 164.251ZM159.151 127.474C158.036 129.358 156.845 131.197 155.575 132.983L150.226 127.634L150.385 127.474H159.151Z" fill="#D61A33"/>
</g>
<defs>
<filter id="filter0_d" x="0" y="0" width="183" height="183" filterUnits="userSpaceOnUse" color-interpolation-filters="sRGB">
<feFlood flood-opacity="0" result="BackgroundImageFix"/>
<feColorMatrix in="SourceAlpha" type="matrix" values="0 0 0 0 0 0 0 0 0 0 0 0 0 0 0 0 0 0 127 0" result="hardAlpha"/>
<feOffset dy="4"/>
<feGaussianBlur stdDeviation="2"/>
<feColorMatrix type="matrix" values="0 0 0 0 0 0 0 0 0 0 0 0 0 0 0 0 0 0 0.25 0"/>
<feBlend mode="normal" in2="BackgroundImageFix" result="effect1_dropShadow"/>
<feBlend mode="normal" in="SourceGraphic" in2="effect1_dropShadow" result="shape"/>
</filter>
</defs>
</svg>
