<svg width="183" height="183" viewBox="0 0 183 183" fill="none" xmlns="http://www.w3.org/2000/svg">
<g clip-path="url(#clip0)" filter="url(#filter0_d)">
<path d="M171.829 2.01891C164.977 -1.93749 156.186 0.418913 152.23 7.27041L132.675 41.1416H90.5021C88.6143 41.1416 87.084 42.6722 87.084 44.5597C87.084 46.4471 88.6143 47.9777 90.5021 47.9777H128.728L114.537 72.5577H34.7632C32.8754 72.5577 31.3451 74.0883 31.3451 75.9757C31.3451 77.8635 32.8754 79.3938 34.7632 79.3938H110.59L102.696 93.066H34.7632C32.8754 93.066 31.3451 94.5966 31.3451 96.4841C31.3451 98.3715 32.8754 99.9021 34.7632 99.9021H101.283L99.8098 113.574H34.7632C32.8754 113.574 31.3451 115.105 31.3451 116.992C31.3451 118.88 32.8754 120.41 34.7632 120.41H99.0732L98.8914 122.099C98.7465 123.444 99.4089 124.748 100.581 125.425C101.111 125.731 101.701 125.883 102.289 125.883C103 125.883 103.708 125.662 104.306 125.225L126.131 109.281C126.515 109 126.836 108.642 127.074 108.23L153.711 62.095V128.346C153.711 136.005 147.48 142.236 139.821 142.236H60.6074C59.3862 142.236 58.2579 142.887 57.6474 143.945L45.6955 164.646L33.7436 143.945C33.1331 142.887 32.0048 142.236 30.7835 142.236H24.7257C17.0669 142.236 10.8361 136.005 10.8361 128.346V61.8674C10.8361 54.2089 17.0669 47.9777 24.7257 47.9777H59.7399C61.6277 47.9777 63.158 46.4471 63.158 44.5597C63.158 42.6719 61.6277 41.1416 59.7399 41.1416H24.7257C13.2975 41.1416 4 50.4391 4 61.8674V128.346C4 139.774 13.2975 149.072 24.7257 149.072H28.81L42.7355 173.191C43.3459 174.249 44.4742 174.9 45.6955 174.9C46.9168 174.9 48.0451 174.249 48.6555 173.191L62.581 149.072H139.822C151.25 149.072 160.547 139.774 160.547 128.346V61.8674C160.547 58.9374 159.926 56.043 158.737 53.3892L177.081 21.6177C181.036 14.7665 178.68 5.97462 171.829 2.01891ZM168.411 7.93898C171.998 10.01 173.231 14.6127 171.16 18.1996L169.207 21.5825L156.197 14.0713L158.151 10.6885C160.222 7.1019 164.824 5.869 168.411 7.93898ZM108.021 101.176L117.86 106.857L106.516 115.144L108.021 101.176ZM122.863 101.852L109.854 94.3409L152.779 19.9914L165.789 27.5026L122.863 101.852Z" fill="#D61A33"/>
<path d="M75.1194 47.978C76.0183 47.978 76.9002 47.6123 77.5393 46.9766C78.1751 46.3408 78.5408 45.459 78.5408 44.5601C78.5408 43.6611 78.1751 42.7793 77.5393 42.1436C76.9002 41.5082 76.0218 41.1421 75.1194 41.1421C74.2205 41.1421 73.3387 41.5078 72.7029 42.1436C72.0672 42.7793 71.7049 43.6611 71.7049 44.5601C71.7049 45.459 72.0668 46.3408 72.7029 46.9766C73.3421 47.6123 74.2205 47.978 75.1194 47.978Z" fill="#D61A33"/>
</g>
<defs>
<filter id="filter0_d" x="0" y="0" width="183" height="183" filterUnits="userSpaceOnUse" color-interpolation-filters="sRGB">
<feFlood flood-opacity="0" result="BackgroundImageFix"/>
<feColorMatrix in="SourceAlpha" type="matrix" values="0 0 0 0 0 0 0 0 0 0 0 0 0 0 0 0 0 0 127 0" result="hardAlpha"/>
<feOffset dy="4"/>
<feGaussianBlur stdDeviation="2"/>
<feColorMatrix type="matrix" values="0 0 0 0 0 0 0 0 0 0 0 0 0 0 0 0 0 0 0.25 0"/>
<feBlend mode="normal" in2="BackgroundImageFix" result="effect1_dropShadow"/>
<feBlend mode="normal" in="SourceGraphic" in2="effect1_dropShadow" result="shape"/>
</filter>
<clipPath id="clip0">
<rect width="175" height="175" fill="white" transform="translate(4)"/>
</clipPath>
</defs>
</svg>
