<svg width="175" height="175" viewBox="0 0 175 175" fill="none" xmlns="http://www.w3.org/2000/svg">
<g filter="url(#filter0_d)">
<path fill-rule="evenodd" clip-rule="evenodd" d="M98.5975 58.3372L73.6283 54.6935L78.3798 71.0921L102.557 71.7643L101.467 65.5019C100.252 63.2546 99.2832 60.8538 98.5975 58.3372ZM127.357 133.171C134.094 133.171 139.556 138.635 139.556 145.37C139.556 152.108 134.094 157.57 127.357 157.57C120.621 157.57 115.158 152.108 115.158 145.37C115.158 138.635 120.621 133.171 127.357 133.171ZM129.185 143.544C127.563 141.921 124.772 143.071 124.772 145.37C124.772 147.67 127.563 148.82 129.185 147.2C130.195 146.19 130.195 144.551 129.185 143.544ZM70.428 133.171C77.164 133.171 82.627 138.635 82.627 145.37C82.627 152.108 77.1633 157.57 70.428 157.57C63.6913 157.57 58.2284 152.108 58.2284 145.37C58.2284 138.635 63.6913 133.171 70.428 133.171ZM72.2556 143.544C70.6336 141.921 67.8433 143.071 67.8433 145.37C67.8433 147.67 70.6343 148.82 72.2556 147.2C73.2645 146.19 73.2645 144.551 72.2556 143.544ZM113.419 78.1892L116.538 96.1211C124.093 94.1007 130.529 89.4191 134.754 83.095C127.111 83.8771 119.66 82.0688 113.419 78.1892ZM147.326 79.2309C142.185 93.843 129.259 104.402 113.587 106.453L62.541 113.131C59.9564 113.74 58.63 116.747 60.11 119.108C60.9184 120.396 62.1497 121.052 63.6862 121.052H139.015C141.669 121.052 143.822 123.205 143.822 125.859C143.822 128.515 141.669 130.667 139.015 130.667H63.6862C53.6638 130.667 46.9079 120.326 51.2141 111.207C51.7816 110.008 52.4872 108.93 53.3142 107.981L28.5076 46.9126L22.4913 42.5569C17.1241 45.4314 10.4864 43.7516 7.10299 38.7108C3.46122 33.287 4.91613 25.9412 10.336 22.3026C15.7598 18.6615 23.1044 20.1164 26.7429 25.5357C28.5378 28.2103 29.2357 31.6625 28.4073 34.9887L34.3015 39.2557L97.4183 48.4659C97.9176 30.2018 112.884 15.5454 131.269 15.5454C140.623 15.5454 149.094 19.3395 155.222 25.4727L160.953 19.7405C162.831 17.8634 165.875 17.8634 167.752 19.7405C169.628 21.6169 169.628 24.6611 167.752 26.5375L161.037 33.2517C169.987 49.7036 163.812 70.3338 147.326 79.2309ZM117.131 51.134C115.254 49.2563 115.254 46.2135 117.131 44.3351C119.007 42.4579 122.052 42.4579 123.928 44.3351L130.144 50.5505L148.425 32.2691C139.174 22.7049 123.42 22.962 114.121 32.2614C104.652 41.7299 104.652 57.086 114.121 66.5564C123.592 76.0255 138.947 76.0255 148.416 66.5564C155.469 59.5055 157.267 49.1914 153.818 40.4709L133.543 60.7464C131.666 62.6242 128.622 62.6242 126.746 60.7464L117.131 51.134ZM18.7827 30.8695C17.7179 29.2828 15.1287 29.6774 14.7342 31.6856C14.3345 33.724 16.5869 35.0498 18.1774 33.983C19.1882 33.3044 19.4575 31.8758 18.7827 30.8695ZM61.8746 103.54C66.945 103.018 72.1586 102.21 77.2289 101.545L71.1252 80.4738L52.2918 79.95L61.8746 103.54ZM81.1785 80.7527L86.84 100.289L107.058 97.6435L104.231 81.3934L81.1785 80.7527ZM48.3538 70.256L68.3247 70.8112L63.2145 53.1737L40.0414 49.791L48.3538 70.256Z" fill="#D61A33"/>
</g>
<defs>
<filter id="filter0_d" x="-4" y="0" width="183" height="183" filterUnits="userSpaceOnUse" color-interpolation-filters="sRGB">
<feFlood flood-opacity="0" result="BackgroundImageFix"/>
<feColorMatrix in="SourceAlpha" type="matrix" values="0 0 0 0 0 0 0 0 0 0 0 0 0 0 0 0 0 0 127 0" result="hardAlpha"/>
<feOffset dy="4"/>
<feGaussianBlur stdDeviation="2"/>
<feColorMatrix type="matrix" values="0 0 0 0 0 0 0 0 0 0 0 0 0 0 0 0 0 0 0.25 0"/>
<feBlend mode="normal" in2="BackgroundImageFix" result="effect1_dropShadow"/>
<feBlend mode="normal" in="SourceGraphic" in2="effect1_dropShadow" result="shape"/>
</filter>
</defs>
</svg>
