<svg width="176" height="176" viewBox="0 0 176 176" fill="none" xmlns="http://www.w3.org/2000/svg">
<g clip-path="url(#clip0)" filter="url(#filter0_d)">
<path d="M73.5664 98.4333C57.5311 82.398 53.9104 66.3627 53.0935 59.9382C52.8653 58.1618 53.4766 56.3803 54.7475 55.1183L67.724 42.1475C69.6329 40.2398 69.9716 37.2668 68.5409 34.9786L47.8797 2.89636C46.2968 0.362602 43.0467 -0.551858 40.3748 0.784778L7.20637 16.4059C5.04571 17.4698 3.77484 19.7655 4.02016 22.1613C5.75809 38.6717 12.956 79.2582 52.8415 119.147C92.7271 159.035 133.308 166.23 149.827 167.968C152.223 168.213 154.518 166.942 155.582 164.782L171.203 131.613C172.535 128.947 171.627 125.706 169.103 124.12L137.021 103.465C134.734 102.032 131.761 102.369 129.852 104.276L116.881 117.252C115.619 118.523 113.838 119.134 112.062 118.906C105.637 118.089 89.6017 114.469 73.5664 98.4333Z" fill="#D61A33"/>
<path d="M137.241 89.7929C134.042 89.7929 131.448 87.1992 131.448 83.9998C131.421 60.0152 111.984 40.5787 87.9998 40.5515C84.8003 40.5515 82.2067 37.9579 82.2067 34.7584C82.2067 31.559 84.8003 28.9653 87.9998 28.9653C118.381 28.9989 143.001 53.619 143.034 83.9998C143.034 87.1992 140.441 89.7929 137.241 89.7929Z" fill="#D61A33"/>
<path d="M166.207 89.7931C163.007 89.7931 160.414 87.1994 160.414 84C160.369 44.0255 127.974 11.6309 87.9998 11.5862C84.8003 11.5862 82.2067 8.99255 82.2067 5.7931C82.2067 2.59366 84.8003 0 87.9998 0C134.371 0.0510832 171.949 37.6293 172 84C172 85.5364 171.389 87.0099 170.303 88.0963C169.217 89.1828 167.743 89.7931 166.207 89.7931Z" fill="#D61A33"/>
</g>
<defs>
<filter id="filter0_d" x="0" y="0" width="176" height="176" filterUnits="userSpaceOnUse" color-interpolation-filters="sRGB">
<feFlood flood-opacity="0" result="BackgroundImageFix"/>
<feColorMatrix in="SourceAlpha" type="matrix" values="0 0 0 0 0 0 0 0 0 0 0 0 0 0 0 0 0 0 127 0" result="hardAlpha"/>
<feOffset dy="4"/>
<feGaussianBlur stdDeviation="2"/>
<feColorMatrix type="matrix" values="0 0 0 0 0 0 0 0 0 0 0 0 0 0 0 0 0 0 0.25 0"/>
<feBlend mode="normal" in2="BackgroundImageFix" result="effect1_dropShadow"/>
<feBlend mode="normal" in="SourceGraphic" in2="effect1_dropShadow" result="shape"/>
</filter>
<clipPath id="clip0">
<rect width="168" height="168" fill="white" transform="translate(4)"/>
</clipPath>
</defs>
</svg>
