<svg width="182" height="182" viewBox="0 0 182 182" fill="none" xmlns="http://www.w3.org/2000/svg">
<g clip-path="url(#clip0)" filter="url(#filter0_d)">
<path d="M166.136 142.364H138.454C121.011 142.364 106.819 128.172 106.819 110.728C106.819 93.2845 121.011 79.0924 138.454 79.0924H166.136C168.322 79.0924 170.091 77.3237 170.091 75.1378V63.2744C170.091 54.9818 163.658 48.2379 155.532 47.5839L132.82 7.91549C130.716 4.24672 127.317 1.62453 123.251 0.535684C119.203 -0.545743 114.971 0.0222199 111.349 2.13058L33.4938 47.4563H19.8201C11.0964 47.4563 4.00201 54.5503 4.00201 63.2744V158.182C4.00201 166.906 11.096 174 19.8201 174H154.273C162.996 174 170.091 166.906 170.091 158.182V146.318C170.091 144.133 168.322 142.364 166.136 142.364ZM137.725 32.4061L146.341 47.4563H111.874L137.725 32.4061ZM49.2129 47.4563L115.33 8.96577C117.118 7.9192 119.207 7.64115 121.204 8.17426C123.224 8.71479 124.908 10.0201 125.954 11.8467L125.962 11.8612L64.8248 47.4563H49.2129Z" fill="#D61A33"/>
<path d="M166.135 87.0015H138.454C125.37 87.0015 114.727 97.6445 114.727 110.728C114.727 123.812 125.37 134.455 138.454 134.455H166.135C172.677 134.455 177.999 129.134 177.999 122.592V98.8649C177.999 92.323 172.677 87.0015 166.135 87.0015ZM138.454 118.637C134.094 118.637 130.545 115.088 130.545 110.728C130.545 106.369 134.094 102.82 138.454 102.82C142.814 102.82 146.363 106.369 146.363 110.728C146.363 115.088 142.814 118.637 138.454 118.637Z" fill="#D61A33"/>
</g>
<defs>
<filter id="filter0_d" x="0" y="0" width="182" height="182" filterUnits="userSpaceOnUse" color-interpolation-filters="sRGB">
<feFlood flood-opacity="0" result="BackgroundImageFix"/>
<feColorMatrix in="SourceAlpha" type="matrix" values="0 0 0 0 0 0 0 0 0 0 0 0 0 0 0 0 0 0 127 0" result="hardAlpha"/>
<feOffset dy="4"/>
<feGaussianBlur stdDeviation="2"/>
<feColorMatrix type="matrix" values="0 0 0 0 0 0 0 0 0 0 0 0 0 0 0 0 0 0 0.25 0"/>
<feBlend mode="normal" in2="BackgroundImageFix" result="effect1_dropShadow"/>
<feBlend mode="normal" in="SourceGraphic" in2="effect1_dropShadow" result="shape"/>
</filter>
<clipPath id="clip0">
<rect width="174" height="174" fill="white" transform="translate(4)"/>
</clipPath>
</defs>
</svg>
