<svg width="40" height="40" viewBox="0 0 40 40" fill="none" xmlns="http://www.w3.org/2000/svg">
<path d="M37.0814 12.7714C37.0086 14.4186 36.3072 16.0672 35.23 17.4129L35.0214 17.6729C34.612 18.184 34.0812 18.5847 33.4774 18.8384C32.8736 19.0922 32.216 19.1909 31.5643 19.1257L27.9643 18.7657C27.1591 18.6851 26.3984 18.3577 25.7863 17.8284C25.1741 17.2991 24.7404 16.5937 24.5443 15.8086L23.9143 13.2872C23.7814 12.7557 23.4714 12.43 23.1429 12.3272C21.2629 11.7429 18.7157 11.7543 16.8572 12.33C16.53 12.43 16.2186 12.7557 16.0857 13.2872L15.4557 15.81C15.2596 16.5951 14.8259 17.3006 14.2138 17.8299C13.6016 18.3592 12.8409 18.6865 12.0357 18.7672L8.43573 19.1257C7.78404 19.1909 7.1264 19.0922 6.52261 18.8384C5.91883 18.5847 5.38806 18.184 4.97858 17.6729L4.77001 17.4129C3.69287 16.0672 2.99144 14.4186 2.91858 12.77C2.84573 11.0957 3.42715 9.42716 4.88858 8.19858C7.64144 5.88573 12.3286 3.57144 20 3.57144C27.6714 3.57144 32.36 5.88573 35.1129 8.20001C36.5729 9.42716 37.1557 11.0957 37.0814 12.7714ZM34.94 12.6757C34.9886 11.5829 34.6257 10.5886 33.7329 9.83859C31.3957 7.87287 27.2043 5.7143 20 5.7143C12.7957 5.7143 8.60573 7.87287 6.26715 9.83859C5.37573 10.5886 5.01144 11.5829 5.06001 12.6757C5.11001 13.7957 5.60001 15.02 6.44287 16.0729L6.65144 16.3343C7.03001 16.8057 7.62144 17.0543 8.22287 16.9943L11.8229 16.6343C12.1887 16.5977 12.5342 16.4491 12.8124 16.2087C13.0906 15.9684 13.2878 15.648 13.3772 15.2914L14.0072 12.7672C14.27 11.7186 14.9972 10.6629 16.2243 10.2814C18.49 9.58144 21.4786 9.56716 23.7786 10.2814C25.0043 10.6629 25.7314 11.7186 25.9929 12.7672L26.6243 15.29C26.7136 15.6466 26.9109 15.9669 27.189 16.2073C27.4672 16.4476 27.8128 16.5962 28.1786 16.6329L31.7786 16.9943C32.0747 17.0236 32.3734 16.9784 32.6475 16.8629C32.9217 16.7474 33.1627 16.5652 33.3486 16.3329L33.5572 16.0729C34.4 15.02 34.8914 13.7957 34.94 12.6757Z" fill="#2A2A2A"/>
<path d="M20.7143 24.6429C20.7143 24.3587 20.6014 24.0862 20.4005 23.8853C20.1996 23.6843 19.9271 23.5714 19.6429 23.5714C19.3587 23.5714 19.0862 23.6843 18.8853 23.8853C18.6844 24.0862 18.5715 24.3587 18.5715 24.6429V28.9286C18.5715 29.52 19.0515 30 19.6429 30H22.5C22.7842 30 23.0567 29.8871 23.2577 29.6862C23.4586 29.4853 23.5715 29.2127 23.5715 28.9286C23.5715 28.6444 23.4586 28.3719 23.2577 28.171C23.0567 27.97 22.7842 27.8572 22.5 27.8572H20.7143V24.6429Z" fill="#2A2A2A"/>
<path d="M20 37.1429C22.4627 37.1429 24.8246 36.1646 26.566 34.4231C28.3074 32.6817 29.2857 30.3199 29.2857 27.8572C29.2857 25.3944 28.3074 23.0326 26.566 21.2912C24.8246 19.5498 22.4627 18.5714 20 18.5714C17.5373 18.5714 15.1754 19.5498 13.434 21.2912C11.6926 23.0326 10.7143 25.3944 10.7143 27.8572C10.7143 30.3199 11.6926 32.6817 13.434 34.4231C15.1754 36.1646 17.5373 37.1429 20 37.1429ZM20 35C18.1056 35 16.2888 34.2475 14.9492 32.9079C13.6097 31.5684 12.8572 29.7516 12.8572 27.8572C12.8572 25.9628 13.6097 24.1459 14.9492 22.8064C16.2888 21.4668 18.1056 20.7143 20 20.7143C21.8944 20.7143 23.7112 21.4668 25.0508 22.8064C26.3903 24.1459 27.1429 25.9628 27.1429 27.8572C27.1429 29.7516 26.3903 31.5684 25.0508 32.9079C23.7112 34.2475 21.8944 35 20 35Z" fill="#2A2A2A"/>
</svg>
