<svg width="40" height="40" viewBox="0 0 40 40" fill="none" xmlns="http://www.w3.org/2000/svg">
<path d="M15 7.5H10V2.5H7.5V7.5H2.5V10H7.5V15H10V10H15V7.5Z" fill="#2A2A2A"/>
<path d="M37.3988 20.7575L33.6488 12.0075C33.5525 11.7826 33.3923 11.5909 33.1881 11.4562C32.9839 11.3216 32.7446 11.2499 32.5 11.25H28.75V8.75C28.75 8.41848 28.6183 8.10054 28.3839 7.86612C28.1495 7.6317 27.8315 7.5 27.5 7.5H18.75V10H26.25V25.695C25.6804 26.0257 25.1819 26.466 24.7833 26.9903C24.3847 27.5146 24.0938 28.1127 23.9275 28.75H16.0725C15.8006 27.6772 15.1787 26.7257 14.3053 26.046C13.4318 25.3664 12.3567 24.9973 11.25 24.9973C10.1433 24.9973 9.06815 25.3664 8.19472 26.046C7.32129 26.7257 6.69942 27.6772 6.4275 28.75H5V17.5H2.5V30C2.5 30.3315 2.6317 30.6495 2.86612 30.8839C3.10054 31.1183 3.41848 31.25 3.75 31.25H6.4275C6.69942 32.3228 7.32129 33.2743 8.19472 33.954C9.06815 34.6336 10.1433 35.0027 11.25 35.0027C12.3567 35.0027 13.4318 34.6336 14.3053 33.954C15.1787 33.2743 15.8006 32.3228 16.0725 31.25H23.9275C24.1994 32.3228 24.8213 33.2743 25.6947 33.954C26.5682 34.6336 27.6433 35.0027 28.75 35.0027C29.8567 35.0027 30.9318 34.6336 31.8053 33.954C32.6787 33.2743 33.3006 32.3228 33.5725 31.25H36.25C36.5815 31.25 36.8995 31.1183 37.1339 30.8839C37.3683 30.6495 37.5 30.3315 37.5 30V21.25C37.5001 21.0807 37.4656 20.9131 37.3988 20.7575ZM11.25 32.5C10.7555 32.5 10.2722 32.3534 9.86107 32.0787C9.44995 31.804 9.12952 31.4135 8.9403 30.9567C8.75108 30.4999 8.70157 29.9972 8.79804 29.5123C8.8945 29.0273 9.1326 28.5819 9.48223 28.2322C9.83186 27.8826 10.2773 27.6445 10.7623 27.548C11.2472 27.4516 11.7499 27.5011 12.2067 27.6903C12.6635 27.8795 13.054 28.2 13.3287 28.6111C13.6034 29.0222 13.75 29.5055 13.75 30C13.749 30.6627 13.4853 31.298 13.0167 31.7667C12.548 32.2353 11.9127 32.499 11.25 32.5ZM28.75 13.75H31.675L34.355 20H28.75V13.75ZM28.75 32.5C28.2555 32.5 27.7722 32.3534 27.3611 32.0787C26.95 31.804 26.6295 31.4135 26.4403 30.9567C26.2511 30.4999 26.2016 29.9972 26.298 29.5123C26.3945 29.0273 26.6326 28.5819 26.9822 28.2322C27.3319 27.8826 27.7773 27.6445 28.2623 27.548C28.7472 27.4516 29.2499 27.5011 29.7067 27.6903C30.1635 27.8795 30.554 28.2 30.8287 28.6111C31.1034 29.0222 31.25 29.5055 31.25 30C31.2493 30.6628 30.9857 31.2983 30.517 31.767C30.0483 32.2357 29.4128 32.4993 28.75 32.5ZM35 28.75H33.5725C33.2972 27.6793 32.6743 26.7302 31.8015 26.0516C30.9288 25.3729 29.8555 25.0031 28.75 25V22.5H35V28.75Z" fill="#2A2A2A"/>
</svg>
