<svg width="18" height="18" viewBox="0 0 18 18" fill="none" xmlns="http://www.w3.org/2000/svg">
<path d="M17.041 3.33928C16.8418 3.19992 16.6171 3.10117 16.3798 3.04866C16.1424 2.99615 15.897 2.99091 15.6577 3.03325C15.4183 3.07558 15.1896 3.16466 14.9847 3.2954C14.7798 3.42614 14.6026 3.59597 14.4633 3.79519L7.42642 13.8448L2.81251 10.6931C2.44246 10.44 1.98701 10.3442 1.54636 10.4269C1.1057 10.5096 0.715939 10.7639 0.462811 11.134C0.209682 11.504 0.113924 11.9595 0.196601 12.4001C0.279278 12.8408 0.533619 13.2306 0.90367 13.4837L7.08836 17.7081C7.27884 17.8381 7.49411 17.9274 7.72069 17.9704C7.94727 18.0135 8.18029 18.0093 8.40517 17.9581C8.64504 17.9162 8.87427 17.8273 9.07972 17.6966C9.28518 17.5659 9.46282 17.396 9.60245 17.1965L17.4971 5.91835C17.7785 5.51563 17.8885 5.01768 17.8029 4.53392C17.7173 4.05016 17.4431 3.62017 17.0407 3.33844" fill="#7D2E97"/>
</svg>
