<svg width="48" height="48" viewBox="0 0 48 48" fill="none" xmlns="http://www.w3.org/2000/svg">
<path d="M23.9718 24.682C18.3218 24.682 13.6258 19.99 13.6258 14.438C13.6258 8.694 18.3218 4 23.9738 4C29.8178 4 34.3198 8.692 34.3198 14.438C34.3097 17.1641 33.2177 19.7747 31.2837 21.6959C29.3496 23.6172 26.7319 24.692 24.0058 24.684L23.9718 24.682ZM23.9718 10.034C21.5798 10.034 19.7598 12.044 19.7598 14.44C19.7598 16.832 21.5798 18.652 23.9738 18.652C26.4638 18.652 28.1878 16.832 28.1878 14.44C28.1898 12.042 26.4638 10.034 23.9718 10.034ZM28.0918 33.206L33.9378 38.856C35.0878 40.098 35.0878 41.918 33.9378 43.068C32.6938 44.31 30.7758 44.31 29.8178 43.068L23.9738 37.322L18.3218 43.068C17.7478 43.642 16.9798 43.928 16.1158 43.928C15.4458 43.928 14.6798 43.64 14.0078 43.068C12.8578 41.918 12.8578 40.098 14.0078 38.854L19.9478 33.204C17.8027 32.5688 15.7449 31.6692 13.8218 30.526C12.3838 29.76 12.0978 27.846 12.8638 26.408C13.8218 24.972 15.5458 24.59 17.0798 25.548C19.157 26.8156 21.5434 27.4863 23.9768 27.4863C26.4102 27.4863 28.7966 26.8156 30.8738 25.548C32.4078 24.59 34.2258 24.972 35.0878 26.408C35.9518 27.846 35.5658 29.758 34.2238 30.526C32.4058 31.676 30.2978 32.538 28.0938 33.208L28.0918 33.206Z" fill="#FF7500"/>
</svg>
