<svg width="70" height="70" viewBox="0 0 70 70" fill="none" xmlns="http://www.w3.org/2000/svg">
<g clip-path="url(#clip0_589_13)">
<path d="M15.7233 30.3125C18.622 30.3125 21.4556 31.1721 23.8658 32.7825C26.276 34.393 28.1546 36.682 29.2639 39.36C30.3732 42.0381 30.6634 44.985 30.0979 47.828C29.5324 50.6711 28.1365 53.2826 26.0868 55.3323C24.0371 57.382 21.4256 58.7779 18.5825 59.3434C15.7395 59.9089 12.7926 59.6187 10.1145 58.5094C7.43647 57.4001 5.14747 55.5215 3.53702 53.1113C1.92657 50.7011 1.067 47.8675 1.067 44.9688L1 42.875C1 35.1008 4.08827 27.6451 9.58543 22.1479C15.0826 16.6508 22.5383 13.5625 30.3125 13.5625V21.9375C27.5617 21.9301 24.8368 22.4681 22.2953 23.5204C19.7537 24.5726 17.446 26.1183 15.5055 28.068C14.7513 28.8208 14.0556 29.6299 13.4243 30.4884C14.1739 30.3711 14.9402 30.3083 15.7191 30.3083L15.7233 30.3125ZM53.4107 30.3125C56.3095 30.3125 59.1431 31.1721 61.5533 32.7825C63.9635 34.393 65.8421 36.682 66.9514 39.36C68.0607 42.0381 68.3509 44.985 67.7854 47.828C67.2199 50.6711 65.824 53.2826 63.7743 55.3323C61.7246 57.382 59.1131 58.7779 56.27 59.3434C53.427 59.9089 50.4801 59.6187 47.802 58.5094C45.124 57.4001 42.835 55.5215 41.2245 53.1113C39.6141 50.7011 38.7545 47.8675 38.7545 44.9688L38.6875 42.875C38.6875 35.1008 41.7758 27.6451 47.2729 22.1479C52.7701 16.6508 60.2258 13.5625 68 13.5625V21.9375C65.2492 21.9301 62.5243 22.4681 59.9828 23.5204C57.4412 24.5726 55.1335 26.1183 53.193 28.068C52.4388 28.8208 51.7431 29.6299 51.1118 30.4884C51.8614 30.3711 52.6277 30.3083 53.4107 30.3083V30.3125Z" fill="#543E2C"/>
</g>
<defs>
<clipPath id="clip0_589_13">
<rect width="67" height="67" fill="white" transform="translate(1 1)"/>
</clipPath>
</defs>
</svg>
