<svg width="48" height="48" viewBox="0 0 48 48" fill="none" xmlns="http://www.w3.org/2000/svg">
<g clip-path="url(#clip0)">
<path fill-rule="evenodd" clip-rule="evenodd" d="M43.0833 13.9133C43.36 13.0033 43.0833 12.3333 41.7583 12.3333H37.3833C36.27 12.3333 35.7567 12.9117 35.4783 13.55C35.4783 13.55 33.2533 18.8767 30.1017 22.3367C29.0817 23.34 28.6183 23.6583 28.0617 23.6583C27.7833 23.6583 27.365 23.34 27.365 22.4283V13.9133C27.365 12.82 27.0583 12.3333 26.1317 12.3333H19.2517C18.5567 12.3333 18.1383 12.84 18.1383 13.3217C18.1383 14.3567 19.715 14.5967 19.8767 17.51V23.84C19.8767 25.2283 19.6217 25.48 19.065 25.48C17.5817 25.48 13.9733 20.1283 11.8317 14.005C11.4167 12.8133 10.9967 12.3333 9.87833 12.3333H5.5C4.25 12.3333 4 12.9117 4 13.55C4 14.6867 5.48333 20.3333 10.9083 27.8017C14.525 32.9017 19.6167 35.6667 24.255 35.6667C27.0367 35.6667 27.38 35.0533 27.38 33.995V30.14C27.38 28.9117 27.6433 28.6667 28.525 28.6667C29.175 28.6667 30.2867 28.9867 32.8833 31.445C35.85 34.36 36.3383 35.6667 38.0083 35.6667H42.3833C43.6333 35.6667 44.26 35.0533 43.9 33.84C43.5033 32.6333 42.0867 30.8817 40.2083 28.8033C39.1883 27.62 37.6583 26.345 37.1933 25.7067C36.545 24.8883 36.73 24.5233 37.1933 23.795C37.1933 23.795 42.5267 16.4183 43.0817 13.9133H43.0833Z" fill="#2787F5"/>
</g>
<defs>
<clipPath id="clip0">
<rect width="40" height="40" fill="white" transform="translate(4 4)"/>
</clipPath>
</defs>
</svg>
