<svg width="70" height="70" viewBox="0 0 70 70" fill="none" xmlns="http://www.w3.org/2000/svg">
<path fill-rule="evenodd" clip-rule="evenodd" d="M27.3525 13.5946C30.6863 7.59501 39.3138 7.59501 42.6504 13.5946L61.9004 48.2504C65.1408 54.0838 60.9233 61.25 54.2529 61.25H15.7471C9.07668 61.25 4.85917 54.0838 8.09959 48.2504L27.3496 13.5946H27.3525ZM35 23.3333C35.7736 23.3333 36.5154 23.6406 37.0624 24.1876C37.6094 24.7346 37.9167 25.4765 37.9167 26.25V37.9167C37.9167 38.6902 37.6094 39.4321 37.0624 39.9791C36.5154 40.5261 35.7736 40.8333 35 40.8333C34.2265 40.8333 33.4846 40.5261 32.9376 39.9791C32.3906 39.4321 32.0833 38.6902 32.0833 37.9167V26.25C32.0833 25.4765 32.3906 24.7346 32.9376 24.1876C33.4846 23.6406 34.2265 23.3333 35 23.3333ZM37.9167 49.5833C37.9167 50.3569 37.6094 51.0988 37.0624 51.6457C36.5154 52.1927 35.7736 52.5 35 52.5C34.2265 52.5 33.4846 52.1927 32.9376 51.6457C32.3906 51.0988 32.0833 50.3569 32.0833 49.5833C32.0833 48.8098 32.3906 48.0679 32.9376 47.5209C33.4846 46.974 34.2265 46.6667 35 46.6667C35.7736 46.6667 36.5154 46.974 37.0624 47.5209C37.6094 48.0679 37.9167 48.8098 37.9167 49.5833Z" fill="#FF0000"/>
</svg>
